<?xml version="1.0" encoding="utf-8"?>
<!-- Generator: Adobe Illustrator 27.0.0, SVG Export Plug-In . SVG Version: 6.00 Build 0)  -->
<svg version="1.1" id="Layer_1" xmlns="http://www.w3.org/2000/svg" xmlns:xlink="http://www.w3.org/1999/xlink" x="0px" y="0px"
	 viewBox="0 0 1190.6 841.9" style="enable-background:new 0 0 1190.6 841.9;" xml:space="preserve">
<style type="text/css">
	.st0{fill-rule:evenodd;clip-rule:evenodd;fill:url(#SVGID_1_);}
	.st1{fill:#F9F9F9;}
	.st2{fill:#FF0000;}
</style>
<linearGradient id="SVGID_1_" gradientUnits="userSpaceOnUse" x1="839.5004" y1="23.1561" x2="444.1106" y2="491.7663">
	<stop  offset="0" style="stop-color:#B5F2A1"/>
	<stop  offset="1" style="stop-color:#4CB065"/>
</linearGradient>
<path class="st0" d="M489.4,434.7c67.6,25.8,120.7,49.6,202.4,10.9c61.6-29.2,96.8-72.5,81-161.8l-38.9,10.4
	c1.3,57.6-9.3,89.1-54.3,109.8c-43.3,19.9-91.6,21.2-137,7.9L661,86.6c127.7-13.8,122.7,69.7,26.6,102.2l5.8,41.4
	c52.8,3.1,87.3,18.7,101.1,62C833.8,414.8,669.9,536,519.6,474C338,399.1,402.2,116,584.6,94.3c-7.6-47.6,0.2-50.2-49.3-32.4
	c-25.6,9.2-50.9,21.5-68.9,36c-131.7,105.2-133.8,318.9,9.9,402.4c142.5,82.9,365.4,2.2,366.3-175.8c0.4-89.3-59.9-108.4-78.7-128.3
	c75.9-74.3,26.1-172.9-101.3-152c-46.9,7.7-38.7,19.6-54.5,61.8L489.4,434.7z"/>
<g>
	<g>
		<path class="st1" d="M329.3,636l-25.8,34.8H183.4V557.2h120.2l25.8,34.8l-16.2,22L329.3,636z M291.8,592.2l-8.3-9.5h-65.9v20h65.9
			L291.8,592.2z M291.8,636.1l-8.3-10.3h-65.9v19.6h65.9L291.8,636.1z"/>
	</g>
	<g>
		<path class="st1" d="M386.5,671l-34.3,19.5V557.2h34.3V671z"/>
	</g>
	<g>
		<path class="st1" d="M556,670.8h-34.3V643l-10.3-10.1h-65.5v37.9l-34.3,19.6V557.2h118.6l25.8,35l-19.6,26.4l19.6,19.6L556,670.8
			L556,670.8z M520.8,594.4l-8.9-11.8h-66v24.5h65.7L520.8,594.4z"/>
	</g>
	<g>
		<path class="st1" d="M714.8,557.2l-61.6,113.6h-32l-61.6-113.6h34.8l42.7,77.8l42.7-77.8H714.8z"/>
	</g>
	<g>
		<path class="st1" d="M869.7,557.2l-25.2,25.4h-76.2v20h84.9L830,625.8h-61.8v19.6h97.4l-25.4,25.4H733.9V557.2H869.7z"/>
	</g>
	<g>
		<path class="st1" d="M1027.2,670.8h-26l-80.5-66.3v66.3l-34.3,19.7V557.2h24.5l82,67.8v-67.8h34.3L1027.2,670.8L1027.2,670.8z"/>
	</g>
</g>
<path class="st2" d="M417.6,762.5c-5.8,0-6-16.4-6-20.4c0-1.4,0.1-2.8,0.2-4.1c-2.8,0.6-5.7,0.9-8.6,1.2c0.1,3.3,0.2,6.5,0.2,9.8
	c0,3,0,6.2-0.2,9.2c-0.1,2.9-2.2,5.1-5.1,5.1c-3.3,0-4.5-2.8-4.7-5.5c-0.4-5.7-0.8-11.5-0.7-17.2c-0.6,0.1-1.2,0.1-1.9,0.1
	c-2.7,0-7-1.1-7-4.5c0-3.8,6.4-5.2,9.4-5.4c0-0.4,0-0.9,0-1.3c0-9.2,3-22.6,14.6-22.6c7.4,0,10.4,6.8,10.4,13.3
	c0,3.6-1.2,6.8-5.4,6.8c-7.1,0-1.7-9.4-6.4-9.4c-2.8,0-3.4,10.3-3.5,12.3c1.9-0.2,3.8-0.3,5.7-0.3c4.2,0,10.7-0.2,12.6,4.6
	c1.7,4,1.5,11.8,1.5,16C422.6,753.8,423,762.5,417.6,762.5z M430.3,746.6c0-4.4,0.3-8.8,0.8-13.9c-1.3,0-2,0.1-2.5,0.1
	c-3,0-5.6-1.3-5.6-4.1c0-3.4,5.7-5.3,9.9-5.7c-0.1-5.3,1.3-13.8,6.6-13.8c3.1,0,4.6,4,4.6,7.2c0,1.7-0.3,3.6-1,6.5
	c1.6-0.2,2-0.2,2.5-0.2c3.2,0,7.4,1.1,7.4,4.1c0,3.5-6.2,5.3-10.3,5.7c-0.5,3.8-0.6,7-1,10.2c-0.1,1.7-0.3,3.3-0.3,5
	c0,2.4,0.1,7.3,4.4,7.3c1.4,0,2.8-0.4,4.2-0.4c2.5,0,3.5,2,3.5,4.6c0,4-5.2,5.7-9.3,5.7C430.8,765.1,430.3,757.8,430.3,746.6z
	 M471.4,755.8c0-5.8,1.7-11.3,1.7-17.1c0-2.2-0.1-5.7-2.7-5.7c-1.7,0-4.4,6.3-4.4,8c0,2.1,0.1,4.2,0.1,6.4c0,1,0,2.5-0.1,4.1
	c-0.1,1.7-0.2,3.5-0.6,5.2c-0.6,3.3-2.2,6.5-5.5,6.5c-5.7,0-5.1-12.2-5.1-15.5v-3.3c0-3.6-0.2-7.1-0.2-10.6c0-3.7-0.3-12.9,5.6-12.9
	c2.6,0,4.1,3.8,4.7,6c2-2.7,4.9-5.1,9.9-5.1c9.7,0,10,10.5,10,17.1c0,4.8-2.5,25.8-9.8,25.8C471.9,764.5,471.4,757.8,471.4,755.8z
	 M503.4,762.8c-10,0-15.6-11-15.6-19.9c0-9.4,5.1-23,16.4-23c6.5,0,12.1,4.6,12.1,11.2c0,8.9-8.2,15.8-16.8,16.2
	c0.4,2.7,2.4,3.9,4.9,3.9c3.9,0,7-4.7,10.4-4.7c1.9,0,3.6,1.4,3.6,3.3C518.5,756.4,509.3,762.8,503.4,762.8z M505,729.7
	c-4.1,0-5.7,4.9-6,8.1c2.6-0.5,8-1.7,8-5.2C507,731.3,506.3,729.7,505,729.7z M533.1,732.7c0,5.2,8.1,4.9,8.1,13.1
	c0,8-8.9,15.9-16.7,15.9c-3.1,0-6.8-0.8-6.8-4.6c0-7.9,10.7-4.1,10.7-10.5c0-4.1-7.5-8.3-7.5-14.9c0-8.1,7.2-14.3,15-14.3
	c3,0,6.1,1.1,6.1,4.7C542,727.6,533.1,726.2,533.1,732.7z M555.6,736.3c0,5.2,8.1,4.9,8.1,13.1c0,8-8.9,15.9-16.7,15.9
	c-3.1,0-6.8-0.8-6.8-4.6c0-7.9,10.7-4.1,10.7-10.5c0-4.1-7.5-8.3-7.5-14.9c0-8.1,7.2-14.3,15-14.3c3,0,6.1,1.1,6.1,4.7
	C564.5,731.2,555.6,729.9,555.6,736.3z M597,734.2c0,5.2,8.1,4.9,8.1,13.1c0,8-8.9,15.9-16.7,15.9c-3.1,0-6.8-0.8-6.8-4.6
	c0-7.9,10.7-4.1,10.7-10.5c0-4.1-7.5-8.3-7.5-14.9c0-8.1,7.2-14.3,15-14.3c3,0,6.1,1.1,6.1,4.7C605.9,729,597,727.7,597,734.2z
	 M607.7,744c0-10,4.8-22.5,15.8-22.5c10.6,0,14.6,12.8,14.2,21.8c-0.5,10-5,21.3-15.4,21.3C612.7,764.6,607.7,753.3,607.7,744z
	 M618.6,743.1c0,4.6,1.7,11.1,4.5,11.1c3.1,0,4.1-6.3,4.1-10.9c0-4.3-1.5-10.7-4.3-10.7S618.6,739.5,618.6,743.1z M653.8,735
	c0,6.7,0.7,13.4,0.7,20.2c0,3.5-0.4,9-5.2,9c-6.8,0-7.6-22.1-7.6-27.2c0-5.5,1.2-26.8,8.8-26.8c4.1,0,4.1,6.3,4.1,9.3
	C654.5,724.7,653.8,729.9,653.8,735z M674.9,763.6c-12.1,0-15.7-10.7-15.7-21c0-2.8,0.3-5.7,0.9-8.5c0.7-3,3.3-11.9,7.3-11.9
	c3.8,0,4.4,4.8,4.4,7.6c0,2.2-0.4,4.2-0.7,6.3c-0.4,2.8-0.8,5.7-0.8,8.5c0,2.8,0.4,7.7,4.1,7.7c4.9,0,5.4-6.1,5.4-9.7
	c0-4.1-0.7-8.2-1.2-12.3c-0.1-0.4-0.1-0.7-0.1-1c0-2.8,2-6,5-6c6.3,0,7.5,14.6,7.5,18.9C690.9,752.7,687.2,763.6,674.9,763.6z
	 M697.8,746.6c0-4.4,0.3-8.8,0.8-13.9c-1.3,0-2,0.1-2.5,0.1c-3,0-5.6-1.3-5.6-4.1c0-3.4,5.7-5.3,9.9-5.7c-0.2-5.3,1.3-13.8,6.6-13.8
	c3.1,0,4.6,4,4.6,7.2c0,1.7-0.3,3.6-1,6.5c1.6-0.2,2-0.2,2.5-0.2c3.2,0,7.4,1.1,7.4,4.1c0,3.5-6.2,5.3-10.3,5.7
	c-0.5,3.8-0.7,7-1,10.2c-0.2,1.7-0.3,3.3-0.3,5c0,2.4,0.1,7.3,4.4,7.3c1.4,0,2.8-0.4,4.2-0.4c2.5,0,3.5,2,3.5,4.6
	c0,4-5.2,5.7-9.3,5.7C698.3,765.1,697.8,757.8,697.8,746.6z M734.6,741.3c-0.2,4.8,0.6,21-6.5,21.3c-5.4,0.2-5.2-15.4-5.2-18.9
	c0-4.7-0.5-21.7,6.8-21.7c5,0,5,11.9,5,15.1C734.7,738.4,734.7,739.9,734.6,741.3z M728.5,717.5c-1.8,0-3.6-0.9-3.6-2.9
	c0-2.9,3-4.4,5.6-4.4c1.7,0,3.6,0.8,3.6,2.8C734.1,715.6,730.8,717.5,728.5,717.5z M738.7,744c0-10,4.8-22.5,15.8-22.5
	c10.6,0,14.6,12.8,14.2,21.8c-0.5,10-5,21.3-15.4,21.3C743.6,764.6,738.7,753.3,738.7,744z M749.6,743.1c0,4.6,1.7,11.1,4.5,11.1
	c3.1,0,4.1-6.3,4.1-10.9c0-4.3-1.5-10.7-4.3-10.7S749.6,739.5,749.6,743.1z M788.7,755.8c0-5.8,1.7-11.3,1.7-17.1
	c0-2.2-0.2-5.7-2.7-5.7c-1.7,0-4.4,6.3-4.4,8c0,2.1,0.1,4.2,0.1,6.4c0,1,0,2.5-0.1,4.1c-0.1,1.7-0.2,3.5-0.6,5.2
	c-0.7,3.3-2.2,6.5-5.5,6.5c-5.7,0-5.1-12.2-5.1-15.5v-3.3c0-3.6-0.2-7.1-0.2-10.6c0-3.7-0.3-12.9,5.6-12.9c2.6,0,4.1,3.8,4.7,6
	c2-2.7,4.9-5.1,9.9-5.1c9.7,0,10,10.5,10,17.1c0,4.8-2.5,25.8-9.8,25.8C789.1,764.5,788.7,757.8,788.7,755.8z M817.9,734.2
	c0,5.2,8.1,4.9,8.1,13.1c0,8-8.9,15.9-16.7,15.9c-3.1,0-6.8-0.8-6.8-4.6c0-7.9,10.7-4.1,10.7-10.5c0-4.1-7.5-8.3-7.5-14.9
	c0-8.1,7.2-14.3,15-14.3c3,0,6.1,1.1,6.1,4.7C826.8,729,817.9,727.7,817.9,734.2z"/>
</svg>
