<?xml version="1.0" encoding="utf-8"?>
<!-- Generator: Adobe Illustrator 27.0.0, SVG Export Plug-In . SVG Version: 6.00 Build 0)  -->
<svg version="1.1" id="Layer_1" xmlns="http://www.w3.org/2000/svg" xmlns:xlink="http://www.w3.org/1999/xlink" x="0px" y="0px"
	 viewBox="0 0 1190.55 841.89" style="enable-background:new 0 0 1190.55 841.89;" xml:space="preserve">
<style type="text/css">
	.st0{display:none;fill-rule:evenodd;clip-rule:evenodd;fill:#FFFFFF;}
	.st1{fill-rule:evenodd;clip-rule:evenodd;fill:#FFFFFF;}
	.st2{fill-rule:evenodd;clip-rule:evenodd;fill:url(#SVGID_1_);}
</style>
<path class="st0" d="M608.86,823.05c-73.85,0-144.35-18.3-203.89-52.93c-101.94-59.29-165.65-164.34-174.8-288.21
	c-4.91-66.46,6.36-134.61,32.59-197.1c27.39-65.25,70.65-122.74,125.12-166.28c34.46-27.54,79.74-46.98,111.65-58.43l0.74-0.27
	c29.4-10.55,45.6-16.37,57.92-16.37c8.79,0,20.55,3.15,26.65,18.19c3.29,8.1,4.73,18.94,6.73,33.94c1.02,7.63,2.17,16.28,3.77,26.24
	l2.34,14.58l-14.67,1.74c-151.77,18.01-238.47,154.14-254.8,273.01c-11.48,83.59,7.93,184.77,87.05,250.87l189.29-524.78
	c4.98-13.31,8.36-24.6,11.35-34.57c5.94-19.78,10.63-35.41,22.98-47.32c12.02-11.59,29.89-18.44,61.68-23.64
	c18.7-3.06,36.96-4.61,54.29-4.61c81.14,0,143.55,34.22,166.95,91.55c10.93,26.78,12.28,56.79,3.88,86.78
	c-7.44,26.59-22.6,52.88-44.15,76.73c4.02,3.09,8.61,6.37,13.54,9.89c20.48,14.63,45.97,32.83,66.81,62.5
	c24.64,35.08,36.5,77.23,36.24,128.86c-0.25,51.21-11.78,99.36-34.25,143.12c-20.92,40.73-50.79,76.72-88.76,106.97
	c-36.02,28.69-77.83,51.09-124.27,66.57C705.1,815.32,657.33,823.05,608.86,823.05z M419.89,665.79
	c18.56,14.76,40.24,27.63,65.41,38.01c40.33,16.64,82.67,25.07,125.82,25.07c101.22,0,198.04-46.5,252.68-121.35
	c38.66-52.97,49.94-113.41,31.77-170.21c-1.64-5.13-3.5-10.01-5.57-14.64c11.16,67.57,4.48,121.83-20.39,165.74
	c-22.45,39.65-58.92,70.44-114.78,96.91c-47.09,22.31-91.45,33.16-135.6,33.16c0,0,0,0-0.01,0c-62.06,0-117.95-21.47-177.13-44.19
	c-4.78-1.83-9.6-3.68-14.46-5.54L419.89,665.79z M534.35,610.23c24.86,6.08,49.84,9.16,74.45,9.16c40.62,0,79.28-8.3,114.92-24.68
	c60.05-27.59,78.65-66.03,76.54-158.2l-0.25-11.13l79.52-21.31c-23.36-33.47-64.09-49.99-129.15-53.75l-11.59-0.67l-12.41-87.7
	l11.15-3.76c43.09-14.55,67.43-33.5,80.25-46.83c15.38-15.98,22.58-32.45,20.3-46.37c-4.17-25.36-40.97-41.11-96.06-41.11
	c-9.8,0-20.26,0.48-31.18,1.44L534.35,610.23z"/>
<g>
	<circle class="st1" cx="595.28" cy="420.94" r="422.24"/>
	<linearGradient id="SVGID_1_" gradientUnits="userSpaceOnUse" x1="755.6446" y1="131.4776" x2="451.7911" y2="722.1689">
		<stop  offset="0" style="stop-color:#BBF1A2"/>
		<stop  offset="1" style="stop-color:#4CB26B"/>
	</linearGradient>
	<path class="st2" d="M454.44,600.33c82.1,31.33,146.75,60.29,246.06,13.24c74.88-35.48,117.61-88.06,98.4-196.63l-47.26,12.67
		c1.6,69.99-11.32,108.31-66.01,133.43c-52.68,24.2-111.32,25.75-166.51,9.58L662.99,177.3c155.2-16.75,149.11,84.75,32.3,124.19
		l7.11,50.25c64.17,3.71,106.06,22.75,122.89,75.36c47.71,149.09-151.49,296.34-334.1,221.02
		c-220.8-91.07-142.67-435.2,78.98-461.51c-9.29-57.81,0.27-61.04-59.97-39.42c-31.1,11.16-61.83,26.2-83.75,43.72
		c-160.02,127.89-162.58,387.57,11.97,489.09c173.23,100.76,444.11,2.66,445.18-213.71c0.54-108.57-72.78-131.76-95.69-155.93
		c92.24-90.37,31.71-210.1-123.14-184.77c-56.96,9.32-47.03,23.85-66.19,75.13L454.44,600.33z"/>
</g>
</svg>
