<?xml version="1.0" encoding="utf-8"?>
<!-- Generator: Adobe Illustrator 27.0.0, SVG Export Plug-In . SVG Version: 6.00 Build 0)  -->
<svg version="1.1" id="Layer_1" xmlns="http://www.w3.org/2000/svg" xmlns:xlink="http://www.w3.org/1999/xlink" x="0px" y="0px"
	 viewBox="0 0 1190.55 841.89" style="enable-background:new 0 0 1190.55 841.89;" xml:space="preserve">
<style type="text/css">
	.st0{fill-rule:evenodd;clip-rule:evenodd;fill:#FF0000;}
	.st1{fill:#F9F9F9;}
	.st2{fill:#FF0000;}
</style>
<path class="st0" d="M489.4,434.69c67.55,25.78,120.74,49.61,202.45,10.89c61.61-29.19,96.76-72.45,80.96-161.78l-38.88,10.42
	c1.32,57.59-9.32,89.12-54.31,109.79c-43.35,19.91-91.59,21.18-137,7.88L660.99,86.64c127.69-13.78,122.68,69.73,26.58,102.18
	l5.85,41.35c52.8,3.05,87.26,18.72,101.11,62.01C833.78,414.84,669.89,536,519.64,474.03C337.97,399.1,402.25,115.96,584.62,94.32
	c-7.64-47.56,0.22-50.22-49.34-32.44c-25.59,9.18-50.87,21.55-68.91,35.97c-131.66,105.22-133.76,318.88,9.85,402.41
	c142.53,82.9,365.4,2.19,366.28-175.83c0.44-89.33-59.88-108.41-78.73-128.29c75.89-74.35,26.09-172.86-101.32-152.02
	c-46.86,7.66-38.69,19.62-54.46,61.81L489.4,434.69z"/>
<g>
	<g>
		<path class="st1" d="M329.34,635.97l-25.8,34.85H183.37v-113.6h120.16l25.8,34.85l-16.18,21.95L329.34,635.97z M291.79,592.16
			l-8.28-9.53h-65.86v20.03h65.86L291.79,592.16z M291.79,636.07l-8.28-10.3h-65.86v19.64h65.86L291.79,636.07z"/>
	</g>
	<g>
		<path class="st1" d="M386.53,670.99l-34.28,19.48V557.22h34.28V670.99z"/>
	</g>
	<g>
		<path class="st1" d="M555.98,670.83H521.7v-27.88l-10.33-10.06h-65.54v37.93l-34.28,19.64V557.22h118.62l25.8,35.05l-19.64,26.38
			l19.64,19.64L555.98,670.83L555.98,670.83z M520.75,594.43l-8.92-11.79h-66v24.46h65.73L520.75,594.43z"/>
	</g>
	<g>
		<path class="st1" d="M714.84,557.22l-61.62,113.61h-31.97l-61.62-113.61h34.83l42.66,77.85l42.66-77.85H714.84z"/>
	</g>
	<g>
		<path class="st1" d="M869.66,557.22l-25.23,25.42h-76.25v20.03h84.92l-23.1,23.1h-61.81v19.64h97.44l-25.42,25.42h-106.3V557.22
			H869.66z"/>
	</g>
	<g>
		<path class="st1" d="M1027.18,670.83h-25.97l-80.52-66.28v66.27l-34.28,19.65V557.22h24.46L992.91,625v-67.78h34.28
			L1027.18,670.83L1027.18,670.83z"/>
	</g>
</g>
<path class="st2" d="M417.56,762.54c-5.81,0-5.95-16.4-5.95-20.4c0-1.38,0.07-2.76,0.22-4.14c-2.83,0.58-5.73,0.94-8.64,1.23
	c0.15,3.27,0.22,6.53,0.22,9.8c0,3.05,0,6.17-0.22,9.22c-0.15,2.9-2.18,5.08-5.08,5.08c-3.27,0-4.5-2.76-4.72-5.52
	c-0.44-5.73-0.8-11.47-0.73-17.2c-0.65,0.07-1.23,0.07-1.89,0.07c-2.69,0-7.04-1.09-7.04-4.5c0-3.85,6.39-5.23,9.36-5.44
	c0-0.44,0-0.87,0-1.31c0-9.22,2.98-22.57,14.59-22.57c7.4,0,10.38,6.82,10.38,13.28c0,3.63-1.16,6.75-5.37,6.75
	c-7.11,0-1.74-9.36-6.39-9.36c-2.83,0-3.41,10.31-3.48,12.27c1.89-0.15,3.77-0.29,5.73-0.29c4.21,0,10.67-0.15,12.56,4.57
	c1.67,3.99,1.52,11.76,1.52,16.04C422.64,753.75,423.01,762.54,417.56,762.54z M430.27,746.64c0-4.36,0.29-8.78,0.8-13.86
	c-1.31,0-1.96,0.07-2.47,0.07c-3.05,0-5.59-1.31-5.59-4.06c0-3.41,5.73-5.3,9.94-5.66c-0.15-5.3,1.31-13.79,6.61-13.79
	c3.12,0,4.57,3.99,4.57,7.19c0,1.74-0.29,3.63-1.02,6.53c1.6-0.22,2.03-0.22,2.47-0.22c3.19,0,7.4,1.09,7.4,4.14
	c0,3.48-6.17,5.3-10.31,5.66c-0.51,3.85-0.65,7.04-1.02,10.23c-0.15,1.67-0.29,3.34-0.29,5.01c0,2.4,0.07,7.26,4.43,7.26
	c1.38,0,2.83-0.36,4.21-0.36c2.47,0,3.48,1.96,3.48,4.57c0,3.99-5.23,5.73-9.29,5.73C430.78,765.08,430.27,757.82,430.27,746.64z
	 M471.42,755.78c0-5.81,1.67-11.32,1.67-17.06c0-2.25-0.15-5.73-2.69-5.73c-1.67,0-4.43,6.32-4.43,7.98c0,2.1,0.07,4.21,0.07,6.39
	c0,1.02,0,2.47-0.07,4.14c-0.07,1.67-0.22,3.48-0.58,5.23c-0.65,3.34-2.18,6.46-5.52,6.46c-5.73,0-5.08-12.19-5.08-15.53v-3.34
	c0-3.63-0.22-7.11-0.22-10.6c0-3.7-0.29-12.92,5.59-12.92c2.61,0,4.14,3.85,4.72,5.95c1.96-2.69,4.86-5.08,9.94-5.08
	c9.73,0,10.02,10.52,10.02,17.06c0,4.79-2.47,25.77-9.8,25.77C471.86,764.5,471.42,757.82,471.42,755.78z M503.36,762.75
	c-10.02,0-15.61-11.03-15.61-19.89c0-9.44,5.15-23.01,16.4-23.01c6.46,0,12.05,4.57,12.05,11.25c0,8.93-8.2,15.75-16.77,16.19
	c0.36,2.69,2.4,3.92,4.94,3.92c3.85,0,7.04-4.65,10.45-4.65c1.89,0,3.63,1.38,3.63,3.34C518.46,756.37,509.31,762.75,503.36,762.75z
	 M504.96,729.65c-4.14,0-5.66,4.86-5.95,8.13c2.61-0.51,7.98-1.74,7.98-5.23C506.99,731.32,506.34,729.65,504.96,729.65z
	 M533.12,732.7c0,5.23,8.13,4.86,8.13,13.07c0,7.98-8.86,15.9-16.69,15.9c-3.12,0-6.82-0.8-6.82-4.57c0-7.91,10.74-4.06,10.74-10.45
	c0-4.06-7.55-8.27-7.55-14.88c0-8.13,7.19-14.3,15.03-14.3c3.05,0,6.1,1.09,6.1,4.65C542.05,727.55,533.12,726.24,533.12,732.7z
	 M555.63,736.33c0,5.23,8.13,4.86,8.13,13.07c0,7.98-8.86,15.9-16.69,15.9c-3.12,0-6.82-0.8-6.82-4.57
	c0-7.91,10.74-4.06,10.74-10.45c0-4.06-7.55-8.27-7.55-14.88c0-8.13,7.19-14.3,15.03-14.3c3.05,0,6.1,1.09,6.1,4.65
	C564.55,731.18,555.63,729.87,555.63,736.33z M597,734.15c0,5.23,8.13,4.86,8.13,13.07c0,7.98-8.86,15.9-16.69,15.9
	c-3.12,0-6.82-0.8-6.82-4.57c0-7.91,10.74-4.06,10.74-10.45c0-4.06-7.55-8.27-7.55-14.88c0-8.13,7.19-14.3,15.03-14.3
	c3.05,0,6.1,1.09,6.1,4.65C605.93,729,597,727.69,597,734.15z M607.74,743.95c0-10.02,4.79-22.5,15.75-22.5
	c10.6,0,14.59,12.78,14.15,21.85c-0.51,10.02-5.01,21.27-15.39,21.27C612.68,764.57,607.74,753.32,607.74,743.95z M618.63,743.08
	c0,4.57,1.67,11.11,4.5,11.11c3.12,0,4.14-6.32,4.14-10.89c0-4.28-1.45-10.74-4.28-10.74S618.63,739.45,618.63,743.08z
	 M653.84,735.03c0,6.68,0.65,13.43,0.65,20.18c0,3.48-0.44,9-5.23,9c-6.82,0-7.62-22.14-7.62-27.15c0-5.52,1.16-26.78,8.78-26.78
	c4.14,0,4.06,6.32,4.06,9.29C654.49,724.72,653.84,729.87,653.84,735.03z M674.89,763.55c-12.12,0-15.68-10.67-15.68-20.98
	c0-2.83,0.29-5.73,0.94-8.49c0.65-3.05,3.27-11.9,7.33-11.9c3.77,0,4.36,4.79,4.36,7.62c0,2.18-0.44,4.21-0.73,6.32
	c-0.44,2.83-0.8,5.66-0.8,8.49c0,2.76,0.36,7.69,4.06,7.69c4.94,0,5.37-6.1,5.37-9.73c0-4.14-0.73-8.2-1.23-12.27
	c-0.07-0.36-0.07-0.65-0.07-1.02c0-2.76,1.96-5.95,5.01-5.95c6.32,0,7.48,14.59,7.48,18.94
	C690.93,752.66,687.16,763.55,674.89,763.55z M697.83,746.64c0-4.36,0.29-8.78,0.8-13.86c-1.31,0-1.96,0.07-2.47,0.07
	c-3.05,0-5.59-1.31-5.59-4.06c0-3.41,5.73-5.3,9.94-5.66c-0.15-5.3,1.31-13.79,6.61-13.79c3.12,0,4.57,3.99,4.57,7.19
	c0,1.74-0.29,3.63-1.02,6.53c1.6-0.22,2.03-0.22,2.47-0.22c3.19,0,7.4,1.09,7.4,4.14c0,3.48-6.17,5.3-10.31,5.66
	c-0.51,3.85-0.65,7.04-1.02,10.23c-0.15,1.67-0.29,3.34-0.29,5.01c0,2.4,0.07,7.26,4.43,7.26c1.38,0,2.83-0.36,4.21-0.36
	c2.47,0,3.48,1.96,3.48,4.57c0,3.99-5.23,5.73-9.29,5.73C698.33,765.08,697.83,757.82,697.83,746.64z M734.63,741.27
	c-0.15,4.79,0.58,21.05-6.53,21.27c-5.44,0.22-5.23-15.39-5.23-18.87c0-4.65-0.51-21.7,6.82-21.7c5.01,0,5.01,11.9,5.01,15.1
	C734.7,738.44,734.7,739.89,734.63,741.27z M728.53,717.46c-1.81,0-3.56-0.94-3.56-2.9c0-2.9,3.05-4.36,5.59-4.36
	c1.74,0,3.56,0.8,3.56,2.83C734.12,715.64,730.85,717.46,728.53,717.46z M738.69,743.95c0-10.02,4.79-22.5,15.75-22.5
	c10.6,0,14.59,12.78,14.15,21.85c-0.51,10.02-5.01,21.27-15.39,21.27C743.63,764.57,738.69,753.32,738.69,743.95z M749.58,743.08
	c0,4.57,1.67,11.11,4.5,11.11c3.12,0,4.14-6.32,4.14-10.89c0-4.28-1.45-10.74-4.28-10.74S749.58,739.45,749.58,743.08z
	 M788.71,755.78c0-5.81,1.67-11.32,1.67-17.06c0-2.25-0.15-5.73-2.69-5.73c-1.67,0-4.43,6.32-4.43,7.98c0,2.1,0.07,4.21,0.07,6.39
	c0,1.02,0,2.47-0.07,4.14c-0.07,1.67-0.22,3.48-0.58,5.23c-0.65,3.34-2.18,6.46-5.52,6.46c-5.73,0-5.08-12.19-5.08-15.53v-3.34
	c0-3.63-0.22-7.11-0.22-10.6c0-3.7-0.29-12.92,5.59-12.92c2.61,0,4.14,3.85,4.72,5.95c1.96-2.69,4.86-5.08,9.94-5.08
	c9.73,0,10.02,10.52,10.02,17.06c0,4.79-2.47,25.77-9.8,25.77C789.14,764.5,788.71,757.82,788.71,755.78z M817.89,734.15
	c0,5.23,8.13,4.86,8.13,13.07c0,7.98-8.86,15.9-16.69,15.9c-3.12,0-6.82-0.8-6.82-4.57c0-7.91,10.74-4.06,10.74-10.45
	c0-4.06-7.55-8.27-7.55-14.88c0-8.13,7.19-14.3,15.03-14.3c3.05,0,6.1,1.09,6.1,4.65C826.82,729,817.89,727.69,817.89,734.15z"/>
</svg>
