<?xml version="1.0" encoding="utf-8"?>
<!-- Generator: Adobe Illustrator 27.0.0, SVG Export Plug-In . SVG Version: 6.00 Build 0)  -->
<svg version="1.1" id="Layer_1" xmlns="http://www.w3.org/2000/svg" xmlns:xlink="http://www.w3.org/1999/xlink" x="0px" y="0px"
	 viewBox="0 0 1190.55 841.89" style="enable-background:new 0 0 1190.55 841.89;" xml:space="preserve">
<style type="text/css">
	.st0{fill-rule:evenodd;clip-rule:evenodd;fill:url(#SVGID_1_);}
	.st1{fill:#FFFFFF;}
	.st2{fill:#FF0000;}
</style>
<linearGradient id="SVGID_1_" gradientUnits="userSpaceOnUse" x1="745.5317" y1="48.937" x2="495.5317" y2="534.937">
	<stop  offset="0" style="stop-color:#BBF1A2"/>
	<stop  offset="1" style="stop-color:#4CB26B"/>
</linearGradient>
<path class="st0" d="M497.71,434.69c67.55,25.78,120.74,49.61,202.45,10.89c61.61-29.19,96.76-72.45,80.96-161.78l-38.88,10.42
	c1.32,57.59-9.32,89.12-54.31,109.79c-43.35,19.91-91.59,21.18-137,7.88L669.3,86.64C797,72.86,791.98,156.37,695.88,188.82
	l5.85,41.35c52.8,3.05,87.26,18.72,101.11,62.01c39.25,122.66-124.64,243.82-274.89,181.85
	c-181.67-74.93-117.39-358.07,64.98-379.71c-7.64-47.56,0.22-50.22-49.34-32.44c-25.59,9.18-50.87,21.55-68.91,35.97
	c-131.66,105.22-133.76,318.88,9.85,402.41c142.53,82.9,365.4,2.19,366.28-175.83c0.44-89.33-59.88-108.41-78.73-128.29
	c75.89-74.35,26.09-172.86-101.32-152.02c-46.86,7.66-38.69,19.62-54.46,61.81L497.71,434.69z"/>
<g>
	<path class="st1" d="M331.03,635.97l-25.8,34.85H185.06V557.22h120.16l25.8,34.85l-16.18,21.95L331.03,635.97z M293.48,592.16
		l-8.28-9.53h-65.86v20.03h65.86L293.48,592.16z M293.48,636.07l-8.28-10.3h-65.86v19.64h65.86L293.48,636.07z"/>
</g>
<g>
	<path class="st1" d="M388.22,670.99l-34.28,19.48V557.22h34.28V670.99z"/>
</g>
<g>
	<path class="st1" d="M557.67,670.83H523.4v-27.88l-10.33-10.06h-65.54v37.93l-34.28,19.64V557.22h118.62l25.8,35.05l-19.64,26.38
		l19.64,19.64V670.83z M522.45,594.43l-8.92-11.79h-66v24.46h65.73L522.45,594.43z"/>
</g>
<g>
	<path class="st1" d="M716.54,557.22l-61.62,113.61h-31.97l-61.62-113.61h34.83l42.66,77.85l42.66-77.85H716.54z"/>
</g>
<g>
	<path class="st1" d="M871.36,557.22l-25.23,25.42h-76.25v20.03h84.92l-23.11,23.11h-61.81v19.64h97.44l-25.42,25.42H735.6V557.22
		H871.36z"/>
</g>
<g>
	<path class="st1" d="M1028.87,670.83h-25.97l-80.52-66.28v66.27l-34.28,19.65V557.22h24.46L994.6,625v-67.78h34.28V670.83z"/>
</g>
<g>
	<path class="st2" d="M311.78,721.45c0,1.5-0.48,2.72-1.45,3.67c-0.97,0.94-2.2,1.42-3.7,1.42c-1.69,0-3.18-0.46-4.46-1.38
		c-1.28-0.92-1.92-2.3-1.92-4.14c0-0.73,0.19-1.69,0.58-2.9c0.39-1.21,0.9-2.37,1.52-3.48c0.63-1.11,1.33-2.08,2.1-2.9
		c0.77-0.82,1.52-1.23,2.25-1.23c0.44,0,0.79,0.15,1.05,0.44c0.27,0.29,0.4,0.63,0.4,1.02c0,0.58-0.13,1.12-0.4,1.63
		c-0.27,0.51-0.56,1.02-0.87,1.52c-0.32,0.51-0.59,1-0.83,1.49c-0.24,0.48-0.36,0.97-0.36,1.45c0.73-0.48,1.5-0.73,2.32-0.73
		c1.06,0,1.96,0.44,2.69,1.31C311.42,719.49,311.78,720.43,311.78,721.45z M324.63,721.45c0,1.5-0.5,2.72-1.49,3.67
		c-0.99,0.94-2.21,1.42-3.67,1.42c-1.69,0-3.18-0.45-4.46-1.34c-1.28-0.89-1.92-2.26-1.92-4.1c0-0.77,0.19-1.75,0.58-2.94
		c0.39-1.19,0.9-2.35,1.52-3.48c0.63-1.14,1.33-2.12,2.1-2.94c0.77-0.82,1.52-1.23,2.25-1.23c0.39,0,0.71,0.15,0.98,0.44
		c0.27,0.29,0.4,0.63,0.4,1.02c0,0.58-0.13,1.12-0.4,1.63c-0.27,0.51-0.54,1.02-0.83,1.52c-0.29,0.51-0.56,1-0.8,1.49
		c-0.24,0.48-0.36,0.97-0.36,1.45c0.73-0.48,1.48-0.73,2.25-0.73c1.06,0,1.97,0.44,2.72,1.31
		C324.26,719.49,324.63,720.43,324.63,721.45z"/>
	<path class="st2" d="M359.47,713.76c0,2.08-0.28,4.37-0.83,6.86c-0.56,2.49-1.25,5.02-2.07,7.59c-0.82,2.57-1.73,5.04-2.72,7.44
		c-0.99,2.4-1.92,4.54-2.79,6.42c-0.48,1.02-1.06,2.32-1.74,3.92c-0.68,1.6-1.44,3.29-2.29,5.08c-0.85,1.79-1.75,3.59-2.72,5.41
		c-0.97,1.82-1.98,3.45-3.05,4.9c-1.07,1.45-2.14,2.64-3.23,3.56c-1.09,0.92-2.17,1.38-3.23,1.38c-1.55,0-2.64-0.54-3.27-1.63
		c-0.63-1.09-0.94-2.33-0.94-3.74c0-1.35,0.23-2.77,0.69-4.25c0.46-1.48,1.03-2.95,1.71-4.43c0.68-1.48,1.43-2.9,2.25-4.28
		c0.82-1.38,1.6-2.6,2.32-3.67c-0.92-0.24-1.84-0.66-2.76-1.27c-0.92-0.6-1.57-1.34-1.96-2.21c-0.77-1.69-1.56-3.57-2.36-5.62
		c-0.8-2.06-1.52-4.16-2.18-6.32c-0.65-2.15-1.19-4.31-1.6-6.46c-0.41-2.15-0.62-4.12-0.62-5.92c0-0.87,0.1-1.82,0.29-2.83
		c0.19-1.02,0.51-1.96,0.94-2.83s1.03-1.6,1.78-2.18c0.75-0.58,1.66-0.87,2.72-0.87c1.21,0,2.29,0.46,3.23,1.38
		c0.94,0.92,1.78,2.09,2.5,3.52c0.73,1.43,1.35,3.01,1.89,4.75c0.53,1.74,0.99,3.46,1.38,5.15c0.39,1.7,0.7,3.27,0.94,4.72
		c0.24,1.45,0.44,2.57,0.58,3.34c0.19-0.73,0.52-1.81,0.98-3.27c0.46-1.45,1-3.05,1.63-4.79c0.63-1.74,1.35-3.54,2.18-5.41
		c0.82-1.86,1.71-3.54,2.65-5.04c0.94-1.5,1.92-2.73,2.94-3.7c1.02-0.97,2.08-1.45,3.19-1.45c0.73,0,1.32,0.25,1.78,0.76
		c0.46,0.51,0.82,1.12,1.09,1.85c0.27,0.73,0.45,1.46,0.54,2.21C359.43,712.58,359.47,713.22,359.47,713.76z"/>
</g>
<path class="st2" d="M357.3,743.95c0-10.02,4.79-22.5,15.75-22.5c10.6,0,14.59,12.78,14.15,21.85
	c-0.51,10.02-5.01,21.27-15.39,21.27C362.23,764.57,357.3,753.32,357.3,743.95z M368.18,743.08c0,4.57,1.67,11.11,4.5,11.11
	c3.12,0,4.14-6.32,4.14-10.89c0-4.28-1.45-10.74-4.28-10.74C369.71,732.56,368.18,739.45,368.18,743.08z M405.79,763.55
	c-12.12,0-15.68-10.67-15.68-20.98c0-2.83,0.29-5.73,0.94-8.49c0.65-3.05,3.27-11.9,7.33-11.9c3.77,0,4.36,4.79,4.36,7.62
	c0,2.18-0.44,4.21-0.73,6.32c-0.44,2.83-0.8,5.66-0.8,8.49c0,2.76,0.36,7.69,4.06,7.69c4.94,0,5.37-6.1,5.37-9.73
	c0-4.14-0.73-8.2-1.23-12.27c-0.07-0.36-0.07-0.65-0.07-1.02c0-2.76,1.96-5.95,5.01-5.95c6.31,0,7.48,14.59,7.48,18.94
	C421.83,752.66,418.05,763.55,405.79,763.55z M447.6,735.32c-0.87-0.36-1.67-0.73-2.61-0.73c-3.77,0.15-6.1,4.21-7.04,7.55
	c-0.29,1.09-0.44,3.63-0.51,6.31c0,2.61,0,5.37-0.15,6.82c-0.22,3.05-1.31,8.71-5.44,8.71c-3.27,0-4.65-4.14-5.15-8.57
	c-0.58-4.43-0.44-9.44-0.44-11.47c-0.07-3.34-0.44-6.61-0.44-10.02c0-4.06,0.44-10.96,6.24-10.96c3.19,0,4.5,4.72,4.65,7.48
	c2.25-3.7,4.79-6.24,9.29-6.39c4.5-0.15,9.51,2.03,9.73,7.26c0.07,2.98-2.18,4.65-5.01,4.72
	C449.48,736.11,448.47,735.68,447.6,735.32z M502.98,762.54c-5.81,0-5.95-16.4-5.95-20.4c0-1.38,0.07-2.76,0.22-4.14
	c-2.83,0.58-5.73,0.94-8.64,1.23c0.15,3.27,0.22,6.53,0.22,9.8c0,3.05,0,6.17-0.22,9.22c-0.15,2.9-2.18,5.08-5.08,5.08
	c-3.27,0-4.5-2.76-4.72-5.52c-0.44-5.73-0.8-11.47-0.73-17.2c-0.65,0.07-1.23,0.07-1.89,0.07c-2.69,0-7.04-1.09-7.04-4.5
	c0-3.85,6.39-5.23,9.36-5.44c0-0.44,0-0.87,0-1.31c0-9.22,2.98-22.57,14.59-22.57c7.4,0,10.38,6.82,10.38,13.28
	c0,3.63-1.16,6.75-5.37,6.75c-7.11,0-1.74-9.36-6.39-9.36c-2.83,0-3.41,10.31-3.48,12.27c1.89-0.15,3.77-0.29,5.73-0.29
	c4.21,0,10.67-0.15,12.56,4.57c1.67,3.99,1.52,11.76,1.52,16.04C508.06,753.75,508.42,762.54,502.98,762.54z M515.68,746.64
	c0-4.36,0.29-8.78,0.8-13.86c-1.31,0-1.96,0.07-2.47,0.07c-3.05,0-5.59-1.31-5.59-4.06c0-3.41,5.73-5.3,9.94-5.66
	c-0.15-5.3,1.31-13.79,6.61-13.79c3.12,0,4.57,3.99,4.57,7.19c0,1.74-0.29,3.63-1.02,6.53c1.6-0.22,2.03-0.22,2.47-0.22
	c3.19,0,7.4,1.09,7.4,4.14c0,3.48-6.17,5.3-10.31,5.66c-0.51,3.85-0.65,7.04-1.02,10.23c-0.15,1.67-0.29,3.34-0.29,5.01
	c0,2.4,0.07,7.26,4.43,7.26c1.38,0,2.83-0.36,4.21-0.36c2.47,0,3.48,1.96,3.48,4.57c0,3.99-5.23,5.73-9.29,5.73
	C516.19,765.08,515.68,757.82,515.68,746.64z M556.84,755.78c0-5.81,1.67-11.32,1.67-17.06c0-2.25-0.15-5.73-2.69-5.73
	c-1.67,0-4.43,6.32-4.43,7.98c0,2.1,0.07,4.21,0.07,6.39c0,1.02,0,2.47-0.07,4.14c-0.07,1.67-0.22,3.48-0.58,5.23
	c-0.65,3.34-2.18,6.46-5.52,6.46c-5.73,0-5.08-12.19-5.08-15.53v-3.34c0-3.63-0.22-7.11-0.22-10.6c0-3.7-0.29-12.92,5.59-12.92
	c2.61,0,4.14,3.85,4.72,5.95c1.96-2.69,4.86-5.08,9.94-5.08c9.73,0,10.02,10.52,10.02,17.06c0,4.79-2.47,25.77-9.8,25.77
	C557.28,764.5,556.84,757.82,556.84,755.78z M588.78,762.75c-10.02,0-15.61-11.03-15.61-19.89c0-9.44,5.15-23.01,16.4-23.01
	c6.46,0,12.05,4.57,12.05,11.25c0,8.93-8.2,15.75-16.77,16.19c0.36,2.69,2.4,3.92,4.94,3.92c3.85,0,7.04-4.65,10.45-4.65
	c1.89,0,3.63,1.38,3.63,3.34C603.88,756.37,594.73,762.75,588.78,762.75z M590.38,729.65c-4.14,0-5.66,4.86-5.95,8.13
	c2.61-0.51,7.98-1.74,7.98-5.23C592.41,731.32,591.76,729.65,590.38,729.65z M618.54,732.7c0,5.23,8.13,4.86,8.13,13.07
	c0,7.98-8.86,15.9-16.69,15.9c-3.12,0-6.82-0.8-6.82-4.57c0-7.91,10.74-4.06,10.74-10.45c0-4.06-7.55-8.27-7.55-14.88
	c0-8.13,7.19-14.3,15.03-14.3c3.05,0,6.1,1.09,6.1,4.65C627.47,727.55,618.54,726.24,618.54,732.7z M641.04,736.33
	c0,5.23,8.13,4.86,8.13,13.07c0,7.98-8.86,15.9-16.69,15.9c-3.12,0-6.82-0.8-6.82-4.57c0-7.91,10.74-4.06,10.74-10.45
	c0-4.06-7.55-8.27-7.55-14.88c0-8.13,7.19-14.3,15.03-14.3c3.05,0,6.1,1.09,6.1,4.65C649.97,731.18,641.04,729.87,641.04,736.33z
	 M682.42,734.15c0,5.23,8.13,4.86,8.13,13.07c0,7.98-8.86,15.9-16.69,15.9c-3.12,0-6.82-0.8-6.82-4.57
	c0-7.91,10.74-4.06,10.74-10.45c0-4.06-7.55-8.27-7.55-14.88c0-8.13,7.19-14.3,15.03-14.3c3.05,0,6.1,1.09,6.1,4.65
	C691.35,729,682.42,727.69,682.42,734.15z M693.16,743.95c0-10.02,4.79-22.5,15.75-22.5c10.6,0,14.59,12.78,14.15,21.85
	c-0.51,10.02-5.01,21.27-15.39,21.27C698.1,764.57,693.16,753.32,693.16,743.95z M704.05,743.08c0,4.57,1.67,11.11,4.5,11.11
	c3.12,0,4.14-6.32,4.14-10.89c0-4.28-1.45-10.74-4.28-10.74S704.05,739.45,704.05,743.08z M739.25,735.03
	c0,6.68,0.65,13.43,0.65,20.18c0,3.48-0.44,9-5.23,9c-6.82,0-7.62-22.14-7.62-27.15c0-5.52,1.16-26.78,8.78-26.78
	c4.14,0,4.06,6.32,4.06,9.29C739.91,724.72,739.25,729.87,739.25,735.03z M760.31,763.55c-12.12,0-15.68-10.67-15.68-20.98
	c0-2.83,0.29-5.73,0.94-8.49c0.65-3.05,3.27-11.9,7.33-11.9c3.77,0,4.36,4.79,4.36,7.62c0,2.18-0.44,4.21-0.73,6.32
	c-0.44,2.83-0.8,5.66-0.8,8.49c0,2.76,0.36,7.69,4.06,7.69c4.94,0,5.37-6.1,5.37-9.73c0-4.14-0.73-8.2-1.23-12.27
	c-0.07-0.36-0.07-0.65-0.07-1.02c0-2.76,1.96-5.95,5.01-5.95c6.32,0,7.48,14.59,7.48,18.94
	C776.35,752.66,772.57,763.55,760.31,763.55z M783.24,746.64c0-4.36,0.29-8.78,0.8-13.86c-1.31,0-1.96,0.07-2.47,0.07
	c-3.05,0-5.59-1.31-5.59-4.06c0-3.41,5.73-5.3,9.94-5.66c-0.15-5.3,1.31-13.79,6.61-13.79c3.12,0,4.57,3.99,4.57,7.19
	c0,1.74-0.29,3.63-1.02,6.53c1.6-0.22,2.03-0.22,2.47-0.22c3.19,0,7.4,1.09,7.4,4.14c0,3.48-6.17,5.3-10.31,5.66
	c-0.51,3.85-0.65,7.04-1.02,10.23c-0.15,1.67-0.29,3.34-0.29,5.01c0,2.4,0.07,7.26,4.43,7.26c1.38,0,2.83-0.36,4.21-0.36
	c2.47,0,3.48,1.96,3.48,4.57c0,3.99-5.23,5.73-9.29,5.73C783.75,765.08,783.24,757.82,783.24,746.64z M820.05,741.27
	c-0.15,4.79,0.58,21.05-6.53,21.27c-5.44,0.22-5.23-15.39-5.23-18.87c0-4.65-0.51-21.7,6.82-21.7c5.01,0,5.01,11.9,5.01,15.1
	C820.12,738.44,820.12,739.89,820.05,741.27z M813.95,717.46c-1.81,0-3.56-0.94-3.56-2.9c0-2.9,3.05-4.36,5.59-4.36
	c1.74,0,3.56,0.8,3.56,2.83C819.54,715.64,816.27,717.46,813.95,717.46z M824.11,743.95c0-10.02,4.79-22.5,15.75-22.5
	c10.6,0,14.59,12.78,14.15,21.85c-0.51,10.02-5.01,21.27-15.39,21.27C829.05,764.57,824.11,753.32,824.11,743.95z M835,743.08
	c0,4.57,1.67,11.11,4.5,11.11c3.12,0,4.14-6.32,4.14-10.89c0-4.28-1.45-10.74-4.28-10.74S835,739.45,835,743.08z M874.12,755.78
	c0-5.81,1.67-11.32,1.67-17.06c0-2.25-0.15-5.73-2.69-5.73c-1.67,0-4.43,6.32-4.43,7.98c0,2.1,0.07,4.21,0.07,6.39
	c0,1.02,0,2.47-0.07,4.14c-0.07,1.67-0.22,3.48-0.58,5.23c-0.65,3.34-2.18,6.46-5.52,6.46c-5.73,0-5.08-12.19-5.08-15.53v-3.34
	c0-3.63-0.22-7.11-0.22-10.6c0-3.7-0.29-12.92,5.59-12.92c2.61,0,4.14,3.85,4.72,5.95c1.96-2.69,4.86-5.08,9.94-5.08
	c9.73,0,10.02,10.52,10.02,17.06c0,4.79-2.47,25.77-9.8,25.77C874.56,764.5,874.12,757.82,874.12,755.78z M903.3,734.15
	c0,5.23,8.13,4.86,8.13,13.07c0,7.98-8.86,15.9-16.69,15.9c-3.12,0-6.82-0.8-6.82-4.57c0-7.91,10.74-4.06,10.74-10.45
	c0-4.06-7.55-8.27-7.55-14.88c0-8.13,7.19-14.3,15.03-14.3c3.05,0,6.1,1.09,6.1,4.65C912.23,729,903.3,727.69,903.3,734.15z
	 M918.98,726.24c-0.87,0-1.45-0.58-1.45-1.52c0-2.18,2.4-4.14,2.32-6.02c-0.65,0.44-1.52,0.73-2.32,0.73c-2.11,0-3.85-2.1-3.85-4.14
	c0-2.98,2.25-5.08,5.23-5.08c3.41,0,6.39,1.74,6.39,5.44C925.3,718.77,921.81,726.24,918.98,726.24z M931.83,726.02
	c-0.87,0-1.45-0.58-1.45-1.45c0-2.25,2.4-4.14,2.25-6.1c-0.58,0.44-1.45,0.73-2.25,0.73c-2.1,0-3.85-2.11-3.85-4.14
	c0-2.98,2.25-5.01,5.23-5.01c3.41,0,6.31,1.74,6.31,5.44C938.07,718.55,934.66,726.02,931.83,726.02z"/>
</svg>
