<?xml version="1.0" encoding="utf-8"?>
<!-- Generator: Adobe Illustrator 27.0.0, SVG Export Plug-In . SVG Version: 6.00 Build 0)  -->
<svg version="1.1" id="Layer_1" xmlns="http://www.w3.org/2000/svg" xmlns:xlink="http://www.w3.org/1999/xlink" x="0px" y="0px"
	 viewBox="0 0 1190.6 841.9" style="enable-background:new 0 0 1190.6 841.9;" xml:space="preserve">
<style type="text/css">
	.st0{fill:#F9F9F9;}
	.st1{fill:#FF0000;}
</style>
<g>
	<g>
		<g>
			<path class="st0" d="M254.1,384.3l-31.2,42.1H77.5V288.9H223l31.2,42.1l-19.6,26.6L254.1,384.3z M208.7,331.3l-10-11.5h-79.8V344
				h79.8L208.7,331.3z M208.7,384.4l-10-12.5h-79.8v23.7h79.8L208.7,384.4z"/>
		</g>
		<g>
			<path class="st0" d="M323.3,426.7l-41.5,23.6V288.9h41.5V426.7z"/>
		</g>
		<g>
			<path class="st0" d="M528.5,426.4H487v-33.7l-12.5-12.2h-79.3v45.9l-41.5,23.7V288.9h143.6l31.2,42.4l-23.7,32l23.7,23.7V426.4
				L528.5,426.4z M485.9,333.9l-10.8-14.3h-79.9v29.7h79.5L485.9,333.9z"/>
		</g>
		<g>
			<path class="st0" d="M720.8,288.9l-74.6,137.5h-38.7l-74.6-137.5H575l51.7,94.2l51.7-94.2L720.8,288.9L720.8,288.9z"/>
		</g>
		<g>
			<path class="st0" d="M908.3,288.9l-30.5,30.7h-92.2v24.2h102.8l-28.1,28.1h-74.8v23.7h117.9l-30.7,30.7H743.9V288.9H908.3z"/>
		</g>
		<g>
			<path class="st0" d="M1098.9,426.4h-31.5L970,346.2v80.3l-41.5,23.8V288.9h29.7l99.3,82.1v-82.1h41.5L1098.9,426.4L1098.9,426.4z
				"/>
		</g>
	</g>
</g>
<g>
	<path class="st1" d="M354.2,474c1.1,0,2.3,0.2,3.6,0.7c1.2,0.5,2.4,1.2,3.4,2.2s1.9,2.3,2.6,3.8s1,3.3,1,5.4c0,1.6-0.5,2.9-1.6,4.1
		c-1.1,1.1-2.3,1.7-3.8,1.7c-1.6,0-2.8-0.6-3.8-1.8c-1-1.2-1.5-2.6-1.5-4.1c0-2.9,1.2-4.9,3.7-5.8c0-1.6-1.2-2.4-3.5-2.4
		c-0.9,0-1.6,0.3-2.1,0.8s-0.9,1.5-1.2,3c-0.3,1.5-0.5,3.5-0.7,6.2s-0.3,6.2-0.4,10.5h6.4v3.8h-6.5v7.1c0,3.6,0,7.2,0.1,10.8
		c0.1,3.6,0.3,7.7,0.7,12.1c0.1,1,0.3,1.7,0.7,2c0.4,0.3,1.4,0.5,2.9,0.5v3.8h-16v-3.8h1.3c0.7,0,1.3-0.3,1.7-0.9c0.4-0.6,0.8-2,1-4
		s0.4-4.9,0.5-8.6c0.1-3.7,0.1-8.7,0.1-14.9V502h-5v-3.8h5v-6.4c0-3.6,0.3-6.6,0.9-8.9s1.4-4.1,2.4-5.4s2.2-2.2,3.6-2.7
		C350.9,474.2,352.5,474,354.2,474z"/>
	<path class="st1" d="M385.1,538.2h-16v-3.8h1.3c0.7,0,1.3-0.3,1.7-0.8c0.4-0.5,0.7-1.6,0.9-3.2c0.2-1.6,0.3-4,0.4-7
		c0.1-3.1,0.1-7.1,0.1-12.2c0-2.8-0.2-5-0.7-6.6s-1.7-2.5-3.6-2.7v-3.8h12.4c0,3,0,5.7-0.1,8.2s-0.1,4.7-0.2,6.5
		c-0.1,1.9-0.1,3.3-0.2,4.4c-0.1,1.1-0.1,1.7-0.1,1.7c0,3.1,0,5.6,0.1,7.6s0.3,3.6,0.5,4.7s0.7,2,1.3,2.4c0.6,0.5,1.3,0.7,2.2,0.7
		L385.1,538.2L385.1,538.2z M376.8,476.4c1.5,0,2.8,0.6,3.8,1.8c1,1.2,1.5,2.6,1.5,4.1c0,1.6-0.5,3-1.5,4.2s-2.3,1.8-3.8,1.8
		c-1.6,0-2.9-0.6-3.9-1.8c-1-1.2-1.5-2.6-1.5-4.2s0.5-2.9,1.5-4.1C374,477,375.3,476.4,376.8,476.4z"/>
	<path class="st1" d="M416.7,540.2c-0.1,0.8-0.3,1.7-0.8,2.6c-0.5,0.9-1.1,1.7-1.8,2.5c-0.7,0.8-1.5,1.4-2.4,1.9s-1.7,0.7-2.6,0.7
		c-1.9,0-3.6-0.2-5.1-0.6c-1.5-0.4-2.9-1.2-4-2.3c-1.1-1.2-2-2.8-2.6-4.9c-0.6-2.1-0.9-4.8-0.9-8.2v-19.1c0-3.5-0.1-7.2-0.3-10.9
		h-4.5v-3.8c1.3,0,2.6-0.5,3.8-1.5c1.2-1,2.2-2.3,3.1-3.9s1.6-3.3,2.1-5.2c0.5-1.9,0.8-3.8,0.8-5.6h3.2v16.2h6.8v3.8h-6.8
		c-0.2,2.9-0.5,6.6-0.6,11.1c-0.2,4.4-0.3,9.7-0.3,15.8c0,3,0.1,5.5,0.3,7.5c0.2,2,0.5,3.6,1,4.7c0.5,1.2,1,2,1.7,2.5
		s1.4,0.7,2.3,0.7c1,0,2-0.4,3-1.3c1-0.8,1.6-1.7,1.7-2.7L416.7,540.2L416.7,540.2z"/>
	<path class="st1" d="M453.1,538.2H437v-3.8h1.3c1.3,0,2-0.5,2.3-1.4c0.2-0.9,0.4-2.7,0.4-5.3c0-2.7,0-5.2,0.1-7.4s0.1-4.3,0.1-6.2
		c0-4.3-0.3-7.5-1-9.7s-2.3-3.3-4.9-3.3c-1.3,0-2.3,0.2-3.1,0.7c-0.8,0.5-1.4,1.1-1.8,2s-0.7,2-0.9,3.3c-0.2,1.3-0.2,2.8-0.2,4.5
		v16.7c0,1.3,0,2.3,0,3.1s0.2,1.4,0.4,1.8c0.3,0.5,0.7,0.8,1.2,0.9c0.5,0.2,1.3,0.2,2.3,0.2v3.8H417v-3.8h1.3c1.3,0,2-0.6,2.3-1.9
		c0.3-1.3,0.5-3.2,0.5-5.7c0-3.8,0-7.1,0-10.1c0-2.9,0-5.3,0-7s0-3.1-0.1-4.1s-0.3-1.8-0.6-2.3c-0.3-0.5-0.7-0.9-1.3-1.1
		c-0.5-0.2-1.3-0.3-2.2-0.3V498c1.6,0.1,2.9,0.2,3.9,0.3s1.8,0.3,2.4,0.6c0.6,0.3,1.2,0.7,1.6,1.2s0.9,1.2,1.4,1.9
		c0.8-1.5,2-2.6,3.6-3.4s3.3-1.2,5.1-1.2c3.3,0,5.9,0.5,7.8,1.5s3.3,2.3,4.3,4s1.6,3.6,1.8,5.8c0.2,2.2,0.4,4.4,0.4,6.8
		c0,2.5,0,4.6,0,6.3s0,3.2,0,4.4s0,2.3,0,3.2s0,1.7,0,2.5c0,1.1,0.2,1.8,0.7,2.1s1.5,0.5,3,0.5v3.7H453.1z"/>
	<path class="st1" d="M487,528.7c-2.1,6.8-6.3,10.2-12.6,10.2c-2.2,0-4.1-0.5-5.9-1.5c-1.7-1-3.2-2.4-4.5-4.1
		c-1.3-1.7-2.2-3.7-2.9-6c-0.7-2.3-1-4.7-1-7.1v-5c0-2.3,0.4-4.6,1.1-6.8c0.7-2.2,1.7-4.1,3-5.7s2.8-2.9,4.5-3.9s3.6-1.5,5.7-1.5
		c3.8,0,6.9,1.1,9,3.2c2.2,2.1,3.3,5.1,3.3,9c0,0.7-0.1,1.4-0.3,2c-0.2,0.6-0.5,1.2-1,1.7s-1.2,1-2.1,1.5s-2,1.1-3.3,1.7l-11.3,5
		v6.8c0,1.9,0.6,3.6,1.7,5s2.4,2.1,4,2.1c1,0,2.1-0.2,3.2-0.5s2.1-0.8,3.1-1.4c1-0.6,1.8-1.2,2.5-2s1.2-1.6,1.5-2.5h2.3L487,528.7
		L487,528.7z M481.5,508.6c0-5-2.4-7.6-7.1-7.6c-0.8,0-1.6,0.2-2.3,0.6c-0.7,0.4-1.3,0.9-1.8,1.6s-0.9,1.4-1.2,2.3
		c-0.3,0.8-0.4,1.7-0.4,2.6v8.7l10.2-4.1C480.7,512,481.5,510.6,481.5,508.6z"/>
	<path class="st1" d="M508.3,497.3c1.4,0,2.8,0.3,4.1,0.8s2.4,1.6,3.2,3.2v-3.8h3.4V509h-3.4c0-2.1-0.6-3.9-1.8-5.5
		s-2.8-2.4-4.6-2.4c-3,0-4.5,1.5-4.5,4.6c0,0.9,0.2,1.7,0.5,2.4c0.3,0.7,0.9,1.3,1.6,1.9s1.6,1.2,2.8,1.8c1.1,0.6,2.5,1.3,4.2,2.1
		c2.7,1.3,4.6,2.9,5.7,5c1.1,2.1,1.7,4.7,1.7,7.7c0,1.8-0.4,3.5-1.1,5s-1.7,2.8-3,3.9c-1.3,1.1-2.7,2-4.4,2.6s-3.5,0.9-5.3,0.9
		c-1.5,0-2.9-0.3-4.3-0.8s-2.6-1.2-3.7-2.2s-2-2.1-2.7-3.6c-0.7-1.4-1.1-3-1.2-4.8l2.8-0.8c0.3,2.5,1.3,4.5,3,6.1
		c1.7,1.5,3.7,2.3,5.9,2.3c1.7,0,3.1-0.6,4.3-1.9c1.2-1.3,1.8-2.8,1.8-4.6c0-2-0.4-3.6-1.2-4.6s-1.8-1.9-3-2.7
		c-1.2-0.7-2.6-1.4-4.2-2.2c-1.6-0.7-3.1-1.8-4.6-3.2c-1.2-1.1-2-2.4-2.5-4.1c-0.5-1.6-0.7-3.3-0.7-4.9c0-1.4,0.3-2.7,0.9-3.9
		c0.6-1.2,1.4-2.3,2.3-3.2c1-0.9,2.2-1.6,3.6-2.1C505.2,497.5,506.7,497.3,508.3,497.3z"/>
	<path class="st1" d="M539.9,497.3c1.4,0,2.8,0.3,4.1,0.8s2.4,1.6,3.2,3.2v-3.8h3.4V509h-3.4c0-2.1-0.6-3.9-1.8-5.5
		s-2.8-2.4-4.6-2.4c-3,0-4.5,1.5-4.5,4.6c0,0.9,0.2,1.7,0.5,2.4c0.3,0.7,0.9,1.3,1.6,1.9c0.7,0.6,1.6,1.2,2.8,1.8
		c1.1,0.6,2.5,1.3,4.2,2.1c2.7,1.3,4.6,2.9,5.7,5c1.1,2.1,1.7,4.7,1.7,7.7c0,1.8-0.4,3.5-1.1,5s-1.7,2.8-3,3.9
		c-1.3,1.1-2.7,2-4.4,2.6s-3.5,0.9-5.3,0.9c-1.5,0-2.9-0.3-4.3-0.8c-1.4-0.5-2.6-1.2-3.7-2.2c-1.1-1-2-2.1-2.7-3.6
		c-0.7-1.4-1.1-3-1.2-4.8l2.8-0.8c0.3,2.5,1.3,4.5,3,6.1c1.7,1.5,3.7,2.3,5.9,2.3c1.7,0,3.1-0.6,4.3-1.9c1.2-1.3,1.8-2.8,1.8-4.6
		c0-2-0.4-3.6-1.2-4.6s-1.8-1.9-3-2.7c-1.2-0.7-2.6-1.4-4.2-2.2c-1.6-0.7-3.1-1.8-4.6-3.2c-1.2-1.1-2-2.4-2.5-4.1
		c-0.5-1.6-0.7-3.3-0.7-4.9c0-1.4,0.3-2.7,0.9-3.9c0.6-1.2,1.4-2.3,2.3-3.2c1-0.9,2.2-1.6,3.6-2.1
		C536.8,497.5,538.3,497.3,539.9,497.3z"/>
	<path class="st1" d="M596.1,497.3c1.4,0,2.8,0.3,4.1,0.8s2.4,1.6,3.2,3.2v-3.8h3.4V509h-3.4c0-2.1-0.6-3.9-1.8-5.5
		s-2.8-2.4-4.6-2.4c-3,0-4.5,1.5-4.5,4.6c0,0.9,0.2,1.7,0.5,2.4c0.3,0.7,0.9,1.3,1.6,1.9c0.7,0.6,1.6,1.2,2.8,1.8s2.6,1.3,4.2,2.1
		c2.7,1.3,4.6,2.9,5.7,5c1.1,2.1,1.7,4.7,1.7,7.7c0,1.8-0.4,3.5-1.1,5s-1.7,2.8-3,3.9s-2.7,2-4.4,2.6s-3.5,0.9-5.3,0.9
		c-1.5,0-2.9-0.3-4.3-0.8c-1.4-0.5-2.6-1.2-3.7-2.2c-1.1-1-2-2.1-2.7-3.6c-0.7-1.4-1.1-3-1.2-4.8l2.8-0.8c0.3,2.5,1.3,4.5,3,6.1
		c1.7,1.5,3.7,2.3,5.9,2.3c1.7,0,3.1-0.6,4.3-1.9c1.2-1.3,1.8-2.8,1.8-4.6c0-2-0.4-3.6-1.2-4.6s-1.8-1.9-3-2.7
		c-1.2-0.7-2.6-1.4-4.2-2.2c-1.6-0.7-3.1-1.8-4.6-3.2c-1.2-1.1-2-2.4-2.5-4.1c-0.5-1.6-0.7-3.3-0.7-4.9c0-1.4,0.3-2.7,0.9-3.9
		c0.6-1.2,1.4-2.3,2.3-3.2c1-0.9,2.2-1.6,3.6-2.1C593,497.5,594.5,497.3,596.1,497.3z"/>
	<path class="st1" d="M630.3,497.3c2,0,3.8,0.5,5.6,1.5c1.7,1,3.3,2.3,4.5,4c1.3,1.7,2.3,3.5,3.1,5.7c0.8,2.1,1.1,4.4,1.1,6.7v5.9
		c0,2.3-0.4,4.6-1.1,6.7c-0.8,2.1-1.8,4-3.1,5.7s-2.8,3-4.5,4s-3.6,1.5-5.6,1.5s-3.9-0.5-5.7-1.5c-1.7-1-3.3-2.3-4.5-3.9
		c-1.3-1.6-2.3-3.5-3-5.7s-1.1-4.4-1.1-6.8v-5.9c0-2.3,0.4-4.6,1.1-6.8c0.7-2.2,1.7-4.1,3-5.7s2.8-2.9,4.5-3.9
		C626.3,497.8,628.2,497.3,630.3,497.3z M630.3,501.1c-0.8,0-1.6,0.2-2.3,0.6s-1.3,0.9-1.8,1.6s-0.9,1.4-1.2,2.3
		c-0.3,0.8-0.4,1.7-0.4,2.6v20c0,1.9,0.6,3.6,1.7,5c1.1,1.4,2.4,2.1,4,2.1s2.9-0.7,4-2.2c1.1-1.4,1.6-3.1,1.6-4.9v-20
		c0-0.9-0.1-1.8-0.4-2.6c-0.3-0.8-0.6-1.6-1.1-2.3c-0.5-0.7-1.1-1.2-1.8-1.6C631.9,501.3,631.1,501.1,630.3,501.1z"/>
	<path class="st1" d="M666.9,538.2h-16.1v-3.8h1.4c0.5,0,1-0.3,1.4-0.8s0.7-1.9,0.9-4s0.4-5.3,0.5-9.6s0.2-10.2,0.2-17.7
		c0-2.9,0-6-0.1-9.5s-0.2-7.6-0.5-12.5c-0.2-1.3-0.6-2-0.9-2.2c-0.4-0.2-1.3-0.3-2.8-0.3V474h12.4c0,1.6,0,3.5,0,5.5
		s-0.1,4.1-0.1,6.3c0,2.2-0.1,4.4-0.1,6.6c0,2.3-0.1,4.4-0.1,6.4c-0.1,4.9-0.2,9.8-0.4,14.9c0,2.6,0,5.3,0.1,8.1s0.3,6.1,0.6,10
		c0.2,1.1,0.5,1.8,0.8,2.1c0.4,0.3,1.3,0.5,2.9,0.5v3.8L666.9,538.2L666.9,538.2z"/>
	<path class="st1" d="M706.7,502h-1c-1.3,0-2.1,0.5-2.4,1.5s-0.4,2.4-0.4,4.1v17.8c0,4.3-1,7.7-2.9,10.1c-2,2.4-5.1,3.6-9.4,3.6
		c-4.4,0-7.8-1.2-10.3-3.6c-2.5-2.4-3.7-5.8-3.7-10.1c0-14.3-0.2-21.8-0.6-22.5c-0.4-0.6-1.5-0.9-3.2-0.9v-3.8h16.1v3.8h-1.3
		c-1.3,0-2.1,0.7-2.4,2.1c-0.3,1.4-0.5,4-0.5,7.9v3.2c0,3.7,0,6.8,0.1,9.4c0.1,2.5,0.3,4.6,0.7,6.2c0.4,1.6,1,2.7,1.8,3.4s2,1,3.5,1
		c1.4,0,2.6-0.3,3.3-0.9c0.8-0.6,1.4-1.6,1.8-3c0.4-1.4,0.6-3.2,0.7-5.3c0.1-2.2,0.1-4.8,0.1-7.9c0-0.4,0-1.2,0-2.7
		c0-1.4-0.1-2.9-0.1-4.5c0-1.6-0.1-3-0.1-4.2c0-1.3,0-1.9,0-2.1c-0.1-0.5-0.1-1-0.2-1.3c-0.1-0.3-0.3-0.6-0.5-0.8
		c-0.2-0.2-0.6-0.3-1.1-0.4s-1.1-0.1-2-0.1v-3.8h14L706.7,502L706.7,502z"/>
	<path class="st1" d="M738,540.2c-0.1,0.8-0.3,1.7-0.8,2.6c-0.5,0.9-1.1,1.7-1.8,2.5s-1.5,1.4-2.4,1.9s-1.7,0.7-2.6,0.7
		c-1.9,0-3.6-0.2-5.1-0.6c-1.5-0.4-2.9-1.2-4-2.3s-2-2.8-2.6-4.9c-0.6-2.1-0.9-4.8-0.9-8.2v-19.1c0-3.5-0.1-7.2-0.3-10.9H713v-3.8
		c1.3,0,2.6-0.5,3.8-1.5s2.2-2.3,3.1-3.9c0.9-1.6,1.6-3.3,2.1-5.2c0.5-1.9,0.8-3.8,0.8-5.6h3.2v16.2h6.8v3.8H726
		c-0.2,2.9-0.5,6.6-0.6,11.1c-0.2,4.4-0.3,9.7-0.3,15.8c0,3,0.1,5.5,0.3,7.5s0.5,3.6,1,4.7c0.5,1.2,1,2,1.7,2.5s1.4,0.7,2.3,0.7
		c1,0,2-0.4,3-1.3c1-0.8,1.6-1.7,1.7-2.7L738,540.2L738,540.2z"/>
	<path class="st1" d="M755.3,538.2h-16v-3.8h1.3c0.7,0,1.3-0.3,1.7-0.8s0.7-1.6,0.9-3.2c0.2-1.6,0.3-4,0.4-7
		c0.1-3.1,0.1-7.1,0.1-12.2c0-2.8-0.2-5-0.7-6.6s-1.7-2.5-3.6-2.7v-3.8h12.4c0,3,0,5.7-0.1,8.2s-0.1,4.7-0.2,6.5
		c-0.1,1.9-0.1,3.3-0.2,4.4c-0.1,1.1-0.1,1.7-0.1,1.7c0,3.1,0,5.6,0.1,7.6s0.3,3.6,0.5,4.7c0.3,1.2,0.7,2,1.3,2.4
		c0.6,0.5,1.3,0.7,2.2,0.7L755.3,538.2L755.3,538.2z M747,476.4c1.5,0,2.8,0.6,3.8,1.8c1,1.2,1.5,2.6,1.5,4.1c0,1.6-0.5,3-1.5,4.2
		s-2.3,1.8-3.8,1.8c-1.6,0-2.9-0.6-3.9-1.8c-1-1.2-1.5-2.6-1.5-4.2s0.5-2.9,1.5-4.1C744.2,477,745.5,476.4,747,476.4z"/>
	<path class="st1" d="M776.6,497.3c2,0,3.8,0.5,5.6,1.5c1.7,1,3.3,2.3,4.5,4c1.3,1.7,2.3,3.5,3.1,5.7c0.8,2.1,1.1,4.4,1.1,6.7v5.9
		c0,2.3-0.4,4.6-1.1,6.7c-0.8,2.1-1.8,4-3.1,5.7s-2.8,3-4.5,4s-3.6,1.5-5.6,1.5s-3.9-0.5-5.7-1.5c-1.7-1-3.3-2.3-4.5-3.9
		c-1.3-1.6-2.3-3.5-3-5.7s-1.1-4.4-1.1-6.8v-5.9c0-2.3,0.4-4.6,1.1-6.8c0.7-2.2,1.7-4.1,3-5.7s2.8-2.9,4.5-3.9
		C772.7,497.8,774.6,497.3,776.6,497.3z M776.6,501.1c-0.8,0-1.6,0.2-2.3,0.6s-1.3,0.9-1.8,1.6s-0.9,1.4-1.2,2.3
		c-0.3,0.8-0.4,1.7-0.4,2.6v20c0,1.9,0.6,3.6,1.7,5c1.1,1.4,2.4,2.1,4,2.1s2.9-0.7,4-2.2c1.1-1.4,1.6-3.1,1.6-4.9v-20
		c0-0.9-0.1-1.8-0.4-2.6c-0.3-0.8-0.6-1.6-1.1-2.3c-0.5-0.7-1.1-1.2-1.8-1.6C778.2,501.3,777.5,501.1,776.6,501.1z"/>
	<path class="st1" d="M833,538.2h-16.1v-3.8h1.3c1.3,0,2-0.5,2.2-1.4s0.4-2.7,0.4-5.3c0-2.7,0-5.2,0.1-7.4s0.1-4.3,0.1-6.2
		c0-4.3-0.3-7.5-1-9.7s-2.3-3.3-4.9-3.3c-1.3,0-2.3,0.2-3.1,0.7s-1.4,1.1-1.8,2s-0.7,2-0.9,3.3s-0.2,2.8-0.2,4.5v16.7
		c0,1.3,0,2.3,0,3.1s0.2,1.4,0.5,1.8c0.3,0.5,0.7,0.8,1.2,0.9c0.5,0.2,1.3,0.2,2.3,0.2v3.8H797v-3.8h1.3c1.3,0,2-0.6,2.3-1.9
		c0.3-1.3,0.5-3.2,0.5-5.7c0-3.8,0-7.1,0-10.1c0-2.9,0-5.3,0-7s0-3.1-0.1-4.1s-0.3-1.8-0.6-2.3s-0.7-0.9-1.3-1.1
		c-0.5-0.2-1.3-0.3-2.2-0.3V498c1.6,0.1,2.9,0.2,3.9,0.3s1.8,0.3,2.4,0.6c0.6,0.3,1.2,0.7,1.6,1.2c0.4,0.5,0.9,1.2,1.3,1.9
		c0.8-1.5,2-2.6,3.6-3.4s3.3-1.2,5.1-1.2c3.3,0,5.9,0.5,7.8,1.5s3.3,2.3,4.3,4s1.6,3.6,1.8,5.8c0.2,2.2,0.4,4.4,0.4,6.8
		c0,2.5,0,4.6,0,6.3s0,3.2,0,4.4s0,2.3,0,3.2s0,1.7,0,2.5c0,1.1,0.2,1.8,0.7,2.1s1.5,0.5,3,0.5v3.7H833z"/>
	<path class="st1" d="M851.4,497.3c1.4,0,2.8,0.3,4.1,0.8s2.4,1.6,3.2,3.2v-3.8h3.4V509h-3.4c0-2.1-0.6-3.9-1.8-5.5
		s-2.8-2.4-4.6-2.4c-3,0-4.5,1.5-4.5,4.6c0,0.9,0.2,1.7,0.5,2.4c0.3,0.7,0.9,1.3,1.6,1.9c0.7,0.6,1.7,1.2,2.8,1.8s2.5,1.3,4.2,2.1
		c2.7,1.3,4.6,2.9,5.7,5c1.1,2.1,1.7,4.7,1.7,7.7c0,1.8-0.4,3.5-1.1,5c-0.7,1.5-1.7,2.8-3,3.9c-1.3,1.1-2.7,2-4.4,2.6
		s-3.5,0.9-5.3,0.9c-1.5,0-2.9-0.3-4.3-0.8c-1.4-0.5-2.6-1.2-3.7-2.2c-1.1-1-2-2.1-2.7-3.6c-0.7-1.4-1.1-3-1.2-4.8l2.8-0.8
		c0.3,2.5,1.3,4.5,3,6.1c1.7,1.5,3.7,2.3,5.9,2.3c1.7,0,3.1-0.6,4.3-1.9c1.2-1.3,1.8-2.8,1.8-4.6c0-2-0.4-3.6-1.2-4.6
		s-1.8-1.9-3-2.7c-1.2-0.7-2.6-1.4-4.2-2.2c-1.6-0.7-3.1-1.8-4.6-3.2c-1.2-1.1-2-2.4-2.5-4.1c-0.5-1.6-0.7-3.3-0.7-4.9
		c0-1.4,0.3-2.7,0.9-3.9c0.6-1.2,1.4-2.3,2.3-3.2s2.2-1.6,3.6-2.1C848.3,497.5,849.8,497.3,851.4,497.3z"/>
</g>
</svg>
