<?xml version="1.0" encoding="utf-8"?>
<!-- Generator: Adobe Illustrator 27.0.0, SVG Export Plug-In . SVG Version: 6.00 Build 0)  -->
<svg version="1.1" id="Layer_1" xmlns="http://www.w3.org/2000/svg" xmlns:xlink="http://www.w3.org/1999/xlink" x="0px" y="0px"
	 viewBox="0 0 1190.6 841.9" style="enable-background:new 0 0 1190.6 841.9;" xml:space="preserve">
<style type="text/css">
	.st0{fill:#F9F9F9;}
</style>
<g>
	<g>
		<g>
			<path class="st0" d="M249.6,436.2l-32.3,43.6H66.9V337.5h150.5l32.3,43.6l-20.3,27.5L249.6,436.2z M202.6,381.3l-10.3-11.9h-82.6
				v25h82.6L202.6,381.3z M202.6,436.3l-10.3-12.9h-82.6v24.5h82.6L202.6,436.3z"/>
		</g>
		<g>
			<path class="st0" d="M321.2,480l-42.9,24.4v-167h42.9V480z"/>
		</g>
		<g>
			<path class="st0" d="M533.5,479.7h-42.9v-34.9l-12.9-12.6h-82v47.5l-42.9,24.5V337.5h148.6l32.3,43.9L509,414.4l24.5,24.5V479.7
				L533.5,479.7z M489.4,384l-11.2-14.8h-82.7v30.7h82.2L489.4,384z"/>
		</g>
		<g>
			<path class="st0" d="M732.4,337.5l-77.2,142.3h-40L538,337.5h43.6l53.5,97.5l53.5-97.5L732.4,337.5L732.4,337.5z"/>
		</g>
		<g>
			<path class="st0" d="M926.4,337.5l-31.6,31.8h-95.4v25h106.4l-29.1,29.1h-77.4v24.5h122l-31.8,31.8H756.3V337.5H926.4z"/>
		</g>
		<g>
			<path class="st0" d="M1123.6,479.7H1091l-100.8-83v83.1l-42.9,24.6v-167H978l102.7,84.9v-84.9h42.9L1123.6,479.7L1123.6,479.7z"
				/>
		</g>
	</g>
</g>
</svg>
