<?xml version="1.0" encoding="utf-8"?>
<!-- Generator: Adobe Illustrator 27.0.0, SVG Export Plug-In . SVG Version: 6.00 Build 0)  -->
<svg version="1.1" id="Layer_1" xmlns="http://www.w3.org/2000/svg" xmlns:xlink="http://www.w3.org/1999/xlink" x="0px" y="0px"
	 viewBox="0 0 1190.6 841.9" style="enable-background:new 0 0 1190.6 841.9;" xml:space="preserve">
<style type="text/css">
	.st0{display:none;fill-rule:evenodd;clip-rule:evenodd;fill:#FFFFFF;}
	.st1{fill-rule:evenodd;clip-rule:evenodd;fill:#FFFFFF;}
	.st2{fill-rule:evenodd;clip-rule:evenodd;fill:url(#SVGID_1_);}
</style>
<path class="st0" d="M608.9,823.1c-73.8,0-144.4-18.3-203.9-52.9c-102-59.4-165.7-164.4-174.8-288.3c-4.9-66.5,6.4-134.6,32.6-197.1
	c27.4-65.2,70.6-122.7,125.1-166.3c34.5-27.5,79.7-47,111.6-58.4l0.7-0.3c29.4-10.5,45.6-16.4,57.9-16.4c8.8,0,20.5,3.2,26.7,18.2
	c3.3,8.1,4.7,18.9,6.7,33.9c1,7.6,2.2,16.3,3.8,26.2l2.3,14.6l-14.7,1.7c-151.8,18-238.5,154.1-254.8,273
	c-11.5,83.6,7.9,184.8,87,250.9l189.3-524.8c5-13.3,8.4-24.6,11.3-34.6c5.9-19.8,10.6-35.4,23-47.3c12-11.6,29.9-18.4,61.7-23.6
	c18.7-3.1,37-4.6,54.3-4.6c81.1,0,143.5,34.2,167,91.6c10.9,26.8,12.3,56.8,3.9,86.8c-7.4,26.6-22.6,52.9-44.2,76.7
	c4,3.1,8.6,6.4,13.5,9.9c20.5,14.6,46,32.8,66.8,62.5c24.6,35.1,36.5,77.2,36.2,128.9c-0.2,51.2-11.8,99.4-34.2,143.1
	c-20.9,40.7-50.8,76.7-88.8,107c-36,28.7-77.8,51.1-124.3,66.6C705.1,815.3,657.3,823.1,608.9,823.1z M419.9,665.8
	c18.6,14.8,40.2,27.6,65.4,38c40.3,16.6,82.7,25.1,125.8,25.1c101.2,0,198-46.5,252.7-121.3c38.7-53,49.9-113.4,31.8-170.2
	c-1.6-5.1-3.5-10-5.6-14.6c11.2,67.6,4.5,121.8-20.4,165.7c-22.5,39.7-58.9,70.4-114.8,96.9c-47.1,22.3-91.5,33.2-135.6,33.2l0,0
	c-62.1,0-118-21.5-177.1-44.2c-4.8-1.8-9.6-3.7-14.5-5.5L419.9,665.8z M534.3,610.2c24.9,6.1,49.8,9.2,74.5,9.2
	c40.6,0,79.3-8.3,114.9-24.7c60-27.6,78.7-66,76.5-158.2l-0.2-11.1l79.5-21.3c-23.4-33.5-64.1-50-129.1-53.8l-11.6-0.7L726.4,262
	l11.2-3.8c43.1-14.6,67.4-33.5,80.2-46.8c15.4-16,22.6-32.4,20.3-46.4c-4.2-25.4-41-41.1-96.1-41.1c-9.8,0-20.3,0.5-31.2,1.4
	L534.3,610.2z"/>
<g>
	<circle class="st1" cx="595.3" cy="420.9" r="422.2"/>
	<linearGradient id="SVGID_1_" gradientUnits="userSpaceOnUse" x1="747.9174" y1="201.8392" x2="385.4767" y2="769.2968">
		<stop  offset="0" style="stop-color:#B5F2A1"/>
		<stop  offset="1" style="stop-color:#4CB065"/>
	</linearGradient>
	<path class="st2" d="M454.4,600.3c82.1,31.3,146.8,60.3,246.1,13.2c74.9-35.5,117.6-88.1,98.4-196.6l-47.3,12.7
		c1.6,70-11.3,108.3-66,133.4c-52.7,24.2-111.3,25.8-166.5,9.6L663,177.3c155.2-16.8,149.1,84.7,32.3,124.2l7.1,50.2
		c64.2,3.7,106.1,22.8,122.9,75.4c47.7,149.1-151.5,296.3-334.1,221c-220.8-91.1-142.7-435.2,79-461.5c-9.3-57.8,0.3-61-60-39.4
		c-31.1,11.2-61.8,26.2-83.8,43.7c-160,127.9-162.6,387.6,12,489.1c173.2,100.8,444.1,2.7,445.2-213.7
		c0.5-108.6-72.8-131.8-95.7-155.9c92.2-90.4,31.7-210.1-123.1-184.8c-57,9.3-47,23.8-66.2,75.1L454.4,600.3z"/>
</g>
</svg>
